<svg xmlns="http://www.w3.org/2000/svg" xmlns:xlink="http://www.w3.org/1999/xlink" width="500" zoomAndPan="magnify" viewBox="0 0 375 374.999991" height="500" preserveAspectRatio="xMidYMid meet" version="1.2"><g id="4b93cc5ab2"><path style=" stroke:none;fill-rule:nonzero;fill:#393536;fill-opacity:1;" d="M 150.175781 113.308594 C 159.015625 109.90625 168.578125 107.960938 178.605469 107.960938 C 204.59375 107.960938 228.992188 120.726562 243.871094 142.097656 C 251.546875 153.148438 266.746094 155.882812 277.777344 148.175781 C 288.820312 140.492188 291.542969 125.3125 283.859375 114.269531 C 259.878906 79.8125 220.535156 59.242188 178.605469 59.242188 C 154.96875 59.242188 132.886719 65.785156 113.855469 76.988281 Z M 150.175781 113.308594 "/><path style=" stroke:none;fill-rule:nonzero;fill:#393536;fill-opacity:1;" d="M 99.160156 187.402344 C 99.160156 177.375 101.101562 167.8125 104.507812 158.96875 L 68.1875 122.652344 C 56.984375 141.679688 50.441406 163.765625 50.441406 187.402344 C 50.441406 211.035156 56.984375 233.121094 68.1875 252.152344 L 104.507812 215.832031 C 101.101562 206.988281 99.160156 197.425781 99.160156 187.402344 Z M 99.160156 187.402344 "/><path style=" stroke:none;fill-rule:nonzero;fill:#393536;fill-opacity:1;" d="M 277.765625 226.640625 C 266.746094 218.964844 251.554688 221.679688 243.859375 232.722656 C 228.988281 254.082031 204.59375 266.839844 178.605469 266.839844 C 168.578125 266.839844 159.015625 264.898438 150.175781 261.492188 L 113.855469 297.8125 C 132.886719 309.015625 154.96875 315.558594 178.605469 315.558594 C 220.527344 315.558594 259.875 294.996094 283.847656 260.550781 C 291.53125 249.511719 288.808594 234.328125 277.765625 226.640625 Z M 277.765625 226.640625 "/><path style=" stroke:none;fill-rule:nonzero;fill:#eeb30d;fill-opacity:1;" d="M 230.773438 187.402344 C 230.773438 189.109375 230.6875 190.8125 230.523438 192.515625 C 230.355469 194.214844 230.105469 195.902344 229.769531 197.578125 C 229.4375 199.253906 229.023438 200.910156 228.527344 202.546875 C 228.03125 204.179688 227.457031 205.789062 226.800781 207.367188 C 226.148438 208.945312 225.417969 210.488281 224.613281 211.992188 C 223.808594 213.5 222.929688 214.964844 221.980469 216.386719 C 221.03125 217.804688 220.015625 219.175781 218.929688 220.496094 C 217.847656 221.820312 216.699219 223.082031 215.492188 224.292969 C 214.285156 225.5 213.019531 226.644531 211.699219 227.730469 C 210.378906 228.8125 209.007812 229.828125 207.585938 230.777344 C 206.167969 231.730469 204.703125 232.605469 203.195312 233.410156 C 201.6875 234.21875 200.144531 234.945312 198.566406 235.601562 C 196.988281 236.253906 195.382812 236.828125 193.746094 237.324219 C 192.113281 237.820312 190.457031 238.234375 188.78125 238.570312 C 187.105469 238.902344 185.417969 239.152344 183.714844 239.320312 C 182.015625 239.488281 180.3125 239.570312 178.601562 239.570312 C 176.894531 239.570312 175.1875 239.488281 173.488281 239.320312 C 171.789062 239.152344 170.101562 238.902344 168.425781 238.570312 C 166.75 238.234375 165.09375 237.820312 163.457031 237.324219 C 161.824219 236.828125 160.214844 236.253906 158.636719 235.601562 C 157.058594 234.945312 155.515625 234.21875 154.007812 233.410156 C 152.503906 232.605469 151.039062 231.730469 149.617188 230.777344 C 148.195312 229.828125 146.828125 228.8125 145.503906 227.730469 C 144.183594 226.644531 142.921875 225.5 141.710938 224.292969 C 140.503906 223.082031 139.359375 221.820312 138.273438 220.496094 C 137.191406 219.175781 136.171875 217.804688 135.222656 216.386719 C 134.273438 214.964844 133.398438 213.5 132.589844 211.992188 C 131.785156 210.488281 131.058594 208.945312 130.402344 207.367188 C 129.75 205.789062 129.175781 204.179688 128.679688 202.546875 C 128.183594 200.910156 127.765625 199.253906 127.433594 197.578125 C 127.101562 195.902344 126.851562 194.214844 126.683594 192.515625 C 126.515625 190.8125 126.429688 189.109375 126.429688 187.402344 C 126.429688 185.691406 126.515625 183.988281 126.683594 182.289062 C 126.851562 180.585938 127.101562 178.898438 127.433594 177.222656 C 127.765625 175.546875 128.183594 173.890625 128.679688 172.257812 C 129.175781 170.621094 129.75 169.015625 130.402344 167.4375 C 131.058594 165.855469 131.785156 164.316406 132.589844 162.808594 C 133.398438 161.300781 134.273438 159.835938 135.222656 158.417969 C 136.171875 156.996094 137.191406 155.625 138.273438 154.304688 C 139.359375 152.984375 140.503906 151.71875 141.710938 150.511719 C 142.921875 149.300781 144.183594 148.15625 145.503906 147.070312 C 146.828125 145.988281 148.195312 144.972656 149.617188 144.023438 C 151.039062 143.074219 152.503906 142.195312 154.007812 141.390625 C 155.515625 140.585938 157.058594 139.855469 158.636719 139.203125 C 160.214844 138.546875 161.824219 137.972656 163.457031 137.476562 C 165.09375 136.980469 166.75 136.566406 168.425781 136.234375 C 170.101562 135.898438 171.789062 135.648438 173.488281 135.480469 C 175.1875 135.3125 176.894531 135.230469 178.601562 135.230469 C 180.3125 135.230469 182.015625 135.3125 183.714844 135.480469 C 185.417969 135.648438 187.105469 135.898438 188.78125 136.234375 C 190.457031 136.566406 192.113281 136.980469 193.746094 137.476562 C 195.382812 137.972656 196.988281 138.546875 198.566406 139.203125 C 200.144531 139.855469 201.6875 140.585938 203.195312 141.390625 C 204.703125 142.195312 206.167969 143.074219 207.585938 144.023438 C 209.007812 144.972656 210.378906 145.988281 211.699219 147.070312 C 213.019531 148.15625 214.285156 149.300781 215.492188 150.511719 C 216.699219 151.71875 217.847656 152.984375 218.929688 154.304688 C 220.015625 155.625 221.03125 156.996094 221.980469 158.417969 C 222.929688 159.835938 223.808594 161.300781 224.613281 162.808594 C 225.417969 164.316406 226.148438 165.855469 226.800781 167.4375 C 227.457031 169.015625 228.03125 170.621094 228.527344 172.257812 C 229.023438 173.890625 229.4375 175.546875 229.769531 177.222656 C 230.105469 178.898438 230.355469 180.585938 230.523438 182.289062 C 230.6875 183.988281 230.773438 185.691406 230.773438 187.402344 Z M 230.773438 187.402344 "/><path style=" stroke:none;fill-rule:nonzero;fill:#eeb30d;fill-opacity:1;" d="M 188.617188 197.414062 L 168.589844 177.386719 L 75.875 270.105469 C 67.355469 278.621094 55.707031 282.765625 43.660156 282.777344 C 40.300781 282.78125 36.832031 283.222656 33.292969 284.171875 C 18.75 288.085938 7.273438 300.535156 4.753906 315.382812 C 0.136719 342.625 23.414062 365.886719 50.65625 361.242188 C 65.5 358.710938 77.9375 347.226562 81.835938 332.683594 C 82.78125 329.15625 83.222656 325.703125 83.226562 322.359375 C 83.242188 310.308594 87.378906 298.652344 95.898438 290.132812 Z M 188.617188 197.414062 "/><path style=" stroke:none;fill-rule:nonzero;fill:#eeb30d;fill-opacity:1;" d="M 188.617188 177.386719 L 95.898438 84.667969 C 87.378906 76.148438 83.242188 64.488281 83.226562 52.4375 C 83.222656 49.09375 82.78125 45.644531 81.835938 42.117188 C 77.9375 27.570312 65.496094 16.085938 50.648438 13.558594 C 23.402344 8.917969 0.125 32.191406 4.757812 59.4375 C 7.285156 74.285156 18.765625 86.730469 33.3125 90.632812 C 36.84375 91.582031 40.300781 92.019531 43.648438 92.023438 C 55.695312 92.039062 67.351562 96.175781 75.871094 104.699219 L 168.589844 197.414062 Z M 188.617188 177.386719 "/><path style=" stroke:none;fill-rule:nonzero;fill:#eeb30d;fill-opacity:1;" d="M 338.8125 148.761719 C 324.351562 145.742188 310.949219 150.636719 302.011719 159.898438 C 293.808594 168.390625 282.558594 173.238281 270.753906 173.238281 L 178.605469 173.238281 L 178.605469 201.566406 L 270.75 201.566406 C 282.347656 201.566406 293.667969 206.007812 301.597656 214.472656 C 308.777344 222.136719 318.960938 226.929688 330.300781 226.929688 C 355.191406 226.929688 374.707031 203.929688 368.75 178.023438 C 365.410156 163.484375 353.414062 151.8125 338.8125 148.761719 Z M 338.8125 148.761719 "/></g></svg>